<svg xmlns="http://www.w3.org/2000/svg" viewBox="0 0 1024 1024" role="img" aria-label="dailygita.app icon">
  <rect width="1024" height="1024" fill="#F4F1EA"/>
  <circle cx="512" cy="512" r="356" fill="none" stroke="#C27C67" stroke-width="52"/>
  <circle cx="512" cy="512" r="78" fill="#C27C67" opacity="0.92"/>
  <g transform="translate(192 192) scale(6.4)" fill="#8CA192">
    <path d="m90.828 48.453c-0.21875-0.0625-1.6875-0.60938-5.2031-4.0938 2.2656-4.4062 3.4844-5.375 3.6719-5.5 0.5625-0.25 0.90625-0.8125 0.90625-1.4062 0-0.17188-0.03125-0.32812-0.078125-0.48438-0.25-0.76562-1.0312-1.2031-1.7812-1.0625-0.20312 0-1.7812-0.0625-6.2031-2.2812 0.79688-4.875 1.6562-6.1719 1.7969-6.3438 0.32812-0.3125 0.5-0.73438 0.5-1.1562 0-0.3125-0.09375-0.625-0.29688-0.90625-0.45312-0.65625-1.3281-0.84375-2.0156-0.46875-0.21875 0.078125-1.7031 0.48438-6.6094-0.25-0.76562-4.9062-0.34375-6.3906-0.26562-6.6094 0.125-0.23438 0.1875-0.5 0.1875-0.75 0-0.48438-0.21875-0.96875-0.64062-1.2656-0.64062-0.46875-1.5312-0.375-2.0625 0.1875-0.17188 0.14062-1.4844 1-6.3594 1.7969-2.2188-4.4062-2.2812-5.9688-2.2812-6.1875 0.015625-0.10938 0.03125-0.20312 0.03125-0.3125 0-0.65625-0.42188-1.2656-1.0625-1.4844-0.76562-0.25-1.5781 0.10938-1.9219 0.82812-0.125 0.17188-1.0938 1.3906-5.5 3.6562-3.4844-3.5-4.0156-4.9531-4.0938-5.1719-0.09375-0.78125-0.75-1.375-1.5469-1.375s-1.4531 0.59375-1.5469 1.375c-0.078125 0.21875-0.60938 1.6719-4.1094 5.1875-4.375-2.2656-5.3438-3.4844-5.4688-3.6719-0.32812-0.70312-1.1406-1.0781-1.8906-0.82812-0.67188 0.20312-1.0938 0.8125-1.0938 1.4844 0 0.09375 0.015625 0.1875 0.03125 0.29688 0 0.21875-0.078125 1.7656-2.3125 6.2031-4.875-0.79688-6.1719-1.6562-6.3438-1.7969-0.53125-0.5625-1.4219-0.65625-2.0625-0.1875-0.42188 0.29688-0.64062 0.78125-0.64062 1.2656 0 0.25 0.0625 0.51562 0.1875 0.75 0.078125 0.21875 0.5 1.7031-0.26562 6.6094-4.875 0.73438-6.375 0.32812-6.5781 0.25-0.6875-0.375-1.5469-0.20312-2.0312 0.4375-0.20312 0.28125-0.29688 0.59375-0.29688 0.92188 0 0.42188 0.17188 0.84375 0.48438 1.1406 0.14062 0.17188 1 1.4844 1.7969 6.375-4.4219 2.2188-6.0156 2.2812-6.2031 2.2812-0.75-0.14062-1.5312 0.29688-1.7812 1.0625-0.046875 0.15625-0.078125 0.3125-0.078125 0.48438 0 0.59375 0.34375 1.1562 0.90625 1.4062 0.1875 0.125 1.4062 1.0938 3.6719 5.5-3.5156 3.4688-4.9688 4.0156-5.1875 4.0781-0.76562 0.09375-1.375 0.75-1.375 1.5469s0.59375 1.4531 1.3594 1.5625c0.21875 0.0625 1.6875 0.60938 5.2031 4.0938-2.2656 4.4062-3.4844 5.375-3.6719 5.5-0.5625 0.25-0.90625 0.8125-0.90625 1.4062 0 0.17188 0.03125 0.32812 0.078125 0.48438 0.25 0.76562 1.0312 1.2031 1.7812 1.0625 0.23438 0 1.7812 0.0625 6.2031 2.2812-0.79688 4.875-1.6562 6.1719-1.7969 6.3438-0.32812 0.3125-0.5 0.73438-0.5 1.1562 0 0.3125 0.09375 0.625 0.29688 0.90625 0.45312 0.65625 1.3281 0.84375 2.0156 0.46875 0.21875-0.078125 1.7031-0.48438 6.6094 0.25 0.76562 4.9062 0.34375 6.3906 0.26562 6.6094-0.125 0.23438-0.1875 0.5-0.1875 0.75 0 0.48438 0.21875 0.96875 0.64062 1.2656 0.28125 0.20312 0.59375 0.29688 0.92188 0.29688 0.42188 0 0.84375-0.17188 1.1406-0.48438 0.17188-0.14062 1.4844-1 6.3594-1.7969 2.2188 4.4062 2.2812 5.9688 2.2812 6.1875-0.015625 0.10938-0.03125 0.20312-0.03125 0.3125 0 0.65625 0.42188 1.2656 1.0625 1.4844 0.17188 0.046875 0.34375 0.078125 0.5 0.078125 0.59375 0 1.1562-0.34375 1.4219-0.90625 0.125-0.17188 1.0938-1.3906 5.5-3.6562 3.4844 3.5 4.0156 4.9531 4.0938 5.1719 0.09375 0.78125 0.75 1.375 1.5469 1.375s1.4531-0.59375 1.5469-1.375c0.078125-0.21875 0.60938-1.6719 4.1094-5.1875 4.375 2.2656 5.3438 3.4844 5.4688 3.6719 0.26562 0.5625 0.82812 0.90625 1.4219 0.90625 0.15625 0 0.3125-0.015625 0.46875-0.078125 0.67188-0.20312 1.0938-0.8125 1.0938-1.4844 0-0.09375-0.015625-0.1875-0.03125-0.29688 0-0.21875 0.078125-1.7656 2.3125-6.2031 4.875 0.79688 6.1719 1.6562 6.3438 1.7969 0.29688 0.3125 0.71875 0.48438 1.1406 0.48438 0.32812 0 0.64062-0.09375 0.92188-0.29688 0.42188-0.29688 0.64062-0.78125 0.64062-1.2656 0-0.25-0.0625-0.51562-0.1875-0.75-0.078125-0.21875-0.5-1.7031 0.26562-6.6094 4.875-0.75 6.3594-0.32812 6.5781-0.25 0.6875 0.375 1.5469 0.20312 2.0312-0.4375 0.20312-0.28125 0.29688-0.59375 0.29688-0.92188 0-0.42188-0.17188-0.84375-0.48438-1.1406-0.14062-0.17188-1-1.4844-1.7969-6.375 4.4219-2.2188 5.9844-2.2969 6.2031-2.2812 0.75 0.14062 1.5312-0.29688 1.7812-1.0625 0.046875-0.15625 0.078125-0.3125 0.078125-0.48438 0-0.59375-0.34375-1.1562-0.90625-1.4062-0.1875-0.125-1.4062-1.0938-3.6719-5.5 3.5156-3.4688 4.9688-4.0156 5.1875-4.0781 0.76562-0.09375 1.375-0.75 1.375-1.5469s-0.59375-1.4531-1.3594-1.5625zm-5.3281-9.9844c-0.76562 1.0625-1.6719 2.5469-2.75 4.6562-0.14062 0.28125-0.29688 0.54688-0.4375 0.79688-1.3594 2.25-3.0312 3.2969-4.2812 3.7969-0.35938-4.5-1.7812-8.7031-4.0156-12.344 1.2812-0.32812 3.2031-0.46875 5.5938 0.51562h0.015625c0.09375 0.046875 0.17188 0.078125 0.26562 0.10938 0 0 0.011719 0.003906 0.03125 0.015625 0.20312 0.09375 0.40625 0.1875 0.60938 0.29688 2.1094 1.0781 3.7188 1.75 4.9688 2.1562zm-13.625 11.531c0 12.062-9.8125 21.875-21.875 21.875s-21.875-9.8125-21.875-21.875 9.8125-21.875 21.875-21.875 21.875 9.8125 21.875 21.875zm0.57812-24.812c0.5 3.125-0.32812 5.25-1.125 6.5156-2.8281-3.3125-6.4219-5.9531-10.484-7.6406 0.82812-1.0312 2.3125-2.2812 4.8281-2.8906 0 0 0.03125 0 0.046875-0.015625 0.0625 0 0.10938-0.015625 0.17188-0.03125h0.015625c0.23438-0.046875 0.48438-0.09375 0.75-0.14062 2.3281-0.375 4.0312-0.78125 5.2812-1.1875 0 1.3125 0.14062 3.0625 0.51562 5.3906zm-22.453-12.516c0.78125 1.0625 1.9062 2.3906 3.5781 4.0625 2.2188 2.2188 2.8281 4.4062 2.9062 5.9062-2.0781-0.5-4.25-0.76562-6.4844-0.76562s-4.4062 0.26562-6.4844 0.76562c0.078125-1.3281 0.5625-3.2188 2.2344-5.1875 0.20312-0.23438 0.4375-0.48438 0.67188-0.71875 1.6719-1.6719 2.7969-3 3.5781-4.0625zm-21.938 7.125c1.25 0.40625 2.9531 0.8125 5.2812 1.1875 3.125 0.48438 4.8906 1.9219 5.8125 3.0781-4.0625 1.6875-7.6562 4.3281-10.484 7.6406-0.71875-1.125-1.4375-2.9375-1.25-5.5312 0.03125-0.09375 0.03125-0.1875 0.03125-0.29688 0.03125-0.21875 0.0625-0.45312 0.09375-0.6875 0.375-2.3281 0.51562-4.0781 0.51562-5.3906zm-8.5938 16.516c0.28125-0.14062 0.54688-0.26562 0.8125-0.39062 2.4375-1.0156 4.4062-0.89062 5.7031-0.54688-2.2344 3.6406-3.6562 7.8438-4.0156 12.344-1.25-0.5-2.9062-1.5469-4.2656-3.7969-0.015625-0.03125-0.03125-0.078125-0.0625-0.10938-0.14062-0.21875-0.26562-0.45312-0.39062-0.6875-1.0781-2.1094-1.9844-3.5938-2.75-4.6562 1.25-0.40625 2.8594-1.0781 4.9688-2.1562zm-4.9688 25.219c0.76562-1.0625 1.6719-2.5469 2.75-4.6562 1.4219-2.7969 3.3281-4.0469 4.7188-4.5938 0.35938 4.5 1.7812 8.7031 4.0156 12.344-1.2812 0.32812-3.2031 0.46875-5.5938-0.51562h-0.015625c-0.09375-0.046875-0.17188-0.078125-0.26562-0.10938h-0.03125c-0.20312-0.09375-0.40625-0.1875-0.60938-0.29688-2.1094-1.0781-3.7188-1.75-4.9688-2.1562zm13.047 13.281c-0.5-3.125 0.32812-5.25 1.125-6.5156 2.8281 3.3125 6.4219 5.9531 10.484 7.6406-0.82812 1.0312-2.3125 2.2812-4.8281 2.8906h-0.046875c-0.0625 0-0.10938 0.015625-0.17188 0.03125h-0.015625c-0.23438 0.046875-0.48438 0.09375-0.75 0.14062-2.3281 0.375-4.0312 0.78125-5.2812 1.1875 0-1.3125-0.14062-3.0625-0.51562-5.3906zm22.453 12.516c-0.78125-1.0625-1.9062-2.3906-3.5781-4.0625-2.2188-2.2188-2.8281-4.4062-2.9062-5.9062 2.0781 0.5 4.25 0.76562 6.4844 0.76562s4.4062-0.26562 6.4844-0.76562c-0.078125 1.3281-0.5625 3.2188-2.2344 5.1875-0.20312 0.23438-0.4375 0.48438-0.67188 0.71875-1.6719 1.6719-2.7969 3-3.5781 4.0625zm21.938-7.125c-1.25-0.40625-2.9531-0.8125-5.2812-1.1875-3.125-0.48438-4.8906-1.9219-5.8125-3.0781 4.0625-1.6875 7.6562-4.3281 10.484-7.6406 0.71875 1.125 1.4375 2.9375 1.25 5.5312-0.03125 0.09375-0.03125 0.1875-0.03125 0.29688-0.03125 0.21875-0.0625 0.45312-0.09375 0.6875-0.375 2.3281-0.51562 4.0781-0.51562 5.3906zm8.5938-16.516c-0.28125 0.14062-0.54688 0.26562-0.8125 0.39062-2.4375 1.0156-4.4062 0.89062-5.7031 0.54688 2.2344-3.6406 3.6562-7.8438 4.0156-12.344 1.25 0.5 2.9062 1.5469 4.2656 3.7969 0.015625 0.03125 0.03125 0.078125 0.0625 0.10938 0.14062 0.21875 0.26562 0.45312 0.39062 0.6875 1.0781 2.1094 1.9844 3.5938 2.75 4.6562-1.25 0.40625-2.8594 1.0781-4.9688 2.1562z"/>
    <path d="m50 31.25c-10.344 0-18.75 8.4062-18.75 18.75s8.4062 18.75 18.75 18.75 18.75-8.4062 18.75-18.75-8.4062-18.75-18.75-18.75zm0 26.562c-4.3125 0-7.8125-3.5-7.8125-7.8125s3.5-7.8125 7.8125-7.8125 7.8125 3.5 7.8125 7.8125-3.5 7.8125-7.8125 7.8125z"/>
    <path d="m54.688 50c0 6.25-9.375 6.25-9.375 0s9.375-6.25 9.375 0"/>
  </g>
</svg>
